<svg xmlns="http://www.w3.org/2000/svg" version="1.1" xmlns:xlink="http://www.w3.org/1999/xlink" xmlns:svgjs="http://svgjs.dev/svgjs" width="2000" height="585" viewBox="0 0 2000 585"><g transform="matrix(1,0,0,1,-1.2121212121212466,-1.0491296020857703)"><svg viewBox="0 0 396 116" data-background-color="#080d27" preserveAspectRatio="xMidYMid meet" height="585" width="2000" xmlns="http://www.w3.org/2000/svg" xmlns:xlink="http://www.w3.org/1999/xlink"><g id="tight-bounds" transform="matrix(1,0,0,1,0.2400000000000091,0.20803253648196574)"><svg viewBox="0 0 395.52 115.5836381130884" height="115.5836381130884" width="395.52"><g><svg viewBox="0 0 601.2328966293484 175.6995488109084" height="115.5836381130884" width="395.52"><g transform="matrix(1,0,0,1,205.71289662934836,24.28264386605175)"><svg viewBox="0 0 395.52 127.1342610788049" height="127.1342610788049" width="395.52"><g id="textblocktransform"><svg viewBox="0 0 395.52 127.1342610788049" height="127.1342610788049" width="395.52" id="textblock"><g><svg viewBox="0 0 395.52 127.1342610788049" height="127.1342610788049" width="395.52"><g transform="matrix(1,0,0,1,0,0)"><svg width="395.52" viewBox="2.2 -38.57 121.74 39.13" height="127.1342610788049" data-palette-color="#efefef"><path d="M31.69-4.49L31.69 0 2.22 0 2.22-4.49 2.2-4.49 20.58-30.66 2.22-30.66 2.22-35.16 31.69-35.16 31.69-30.66 13.31-4.49 31.69-4.49ZM65.31-14.16L65.31-14.16Q65.31-11.96 64.72-10.03 64.13-8.11 63.1-6.47 62.06-4.83 60.59-3.53 59.13-2.22 57.38-1.32 55.64-0.42 53.65 0.07 51.66 0.56 49.56 0.56L49.56 0.56Q47.46 0.56 45.48 0.07 43.5-0.42 41.76-1.32 40.01-2.22 38.55-3.53 37.08-4.83 36.04-6.47 35.01-8.11 34.42-10.05 33.84-11.99 33.84-14.16L33.84-14.16Q33.84-16.33 34.42-18.27 35.01-20.21 36.04-21.85 37.08-23.49 38.55-24.79 40.01-26.1 41.76-27 43.5-27.91 45.48-28.39 47.46-28.88 49.56-28.88L49.56-28.88Q51.66-28.88 53.65-28.39 55.64-27.91 57.38-27 59.13-26.1 60.59-24.79 62.06-23.49 63.1-21.85 64.13-20.21 64.72-18.27 65.31-16.33 65.31-14.16ZM56.91-14.16L56.91-14.16Q56.91-15.33 56.77-16.64 56.64-17.94 56.32-19.2 56-20.46 55.45-21.62 54.9-22.78 54.1-23.65 53.29-24.51 52.17-25.04 51.05-25.56 49.56-25.56L49.56-25.56Q48.14-25.56 47.04-25.02 45.94-24.49 45.13-23.6 44.31-22.71 43.76-21.53 43.21-20.36 42.87-19.1 42.53-17.85 42.38-16.56 42.23-15.28 42.23-14.16L42.23-14.16Q42.23-13.04 42.38-11.76 42.53-10.47 42.87-9.2 43.21-7.93 43.76-6.77 44.31-5.62 45.13-4.72 45.94-3.83 47.04-3.3 48.14-2.76 49.56-2.76L49.56-2.76Q51.02-2.76 52.15-3.28 53.27-3.81 54.09-4.69 54.9-5.57 55.44-6.71 55.98-7.86 56.31-9.13 56.64-10.4 56.77-11.69 56.91-12.99 56.91-14.16ZM100.29-14.16L100.29-14.16Q100.29-11.96 99.7-10.03 99.12-8.11 98.08-6.47 97.04-4.83 95.58-3.53 94.11-2.22 92.37-1.32 90.62-0.42 88.63 0.07 86.64 0.56 84.54 0.56L84.54 0.56Q82.44 0.56 80.46 0.07 78.49-0.42 76.74-1.32 75-2.22 73.53-3.53 72.07-4.83 71.03-6.47 69.99-8.11 69.4-10.05 68.82-11.99 68.82-14.16L68.82-14.16Q68.82-16.33 69.4-18.27 69.99-20.21 71.03-21.85 72.07-23.49 73.53-24.79 75-26.1 76.74-27 78.49-27.91 80.46-28.39 82.44-28.88 84.54-28.88L84.54-28.88Q86.64-28.88 88.63-28.39 90.62-27.91 92.37-27 94.11-26.1 95.58-24.79 97.04-23.49 98.08-21.85 99.12-20.21 99.7-18.27 100.29-16.33 100.29-14.16ZM91.89-14.16L91.89-14.16Q91.89-15.33 91.76-16.64 91.62-17.94 91.3-19.2 90.99-20.46 90.44-21.62 89.89-22.78 89.08-23.65 88.28-24.51 87.15-25.04 86.03-25.56 84.54-25.56L84.54-25.56Q83.12-25.56 82.03-25.02 80.93-24.49 80.11-23.6 79.29-22.71 78.74-21.53 78.19-20.36 77.85-19.1 77.51-17.85 77.36-16.56 77.22-15.28 77.22-14.16L77.22-14.16Q77.22-13.04 77.36-11.76 77.51-10.47 77.85-9.2 78.19-7.93 78.74-6.77 79.29-5.62 80.11-4.72 80.93-3.83 82.03-3.3 83.12-2.76 84.54-2.76L84.54-2.76Q86.01-2.76 87.13-3.28 88.25-3.81 89.07-4.69 89.89-5.57 90.42-6.71 90.96-7.86 91.29-9.13 91.62-10.4 91.76-11.69 91.89-12.99 91.89-14.16ZM115.4-24.93L115.4 0 107.12 0 107.12-24.93 101.99-24.93 101.99-28.2 107.12-28.2 107.12-38.57 115.4-38.57 115.4-28.2 123.94-28.2 123.94-24.93 115.4-24.93Z" opacity="1" transform="matrix(1,0,0,1,0,0)" fill="#efefef" class="wordmark-text-0" data-fill-palette-color="primary" id="text-0"></path></svg></g></svg></g></svg></g></svg></g><g><svg viewBox="0 0 175.69954881090842 175.6995488109084" height="175.6995488109084" width="175.69954881090842"><g><svg></svg></g><g id="icon-0"><svg viewBox="0 0 175.69954881090842 175.6995488109084" height="175.6995488109084" width="175.69954881090842"><g><path transform="scale(1.757,1.757)" d="M30 100c-16.569 0-30-13.431-30-30v-40c0-16.569 13.431-30 30-30h40c16.569 0 30 13.431 30 30v40c0 16.569-13.431 30-30 30z" fill="#3c52d9" fill-rule="nonzero" stroke="none" stroke-width="1" stroke-linecap="butt" stroke-linejoin="miter" stroke-miterlimit="10" stroke-dasharray="" stroke-dashoffset="0" font-family="none" font-weight="none" font-size="none" text-anchor="none" style="mix-blend-mode: normal" data-fill-palette-color="accent"></path></g><g transform="matrix(1,0,0,1,38.7756792895085,35.13990976218169)"><svg viewBox="0 0 98.14819023189142 105.41972928654502" height="105.41972928654502" width="98.14819023189142"><g><svg xmlns="http://www.w3.org/2000/svg" xmlns:xlink="http://www.w3.org/1999/xlink" xml:space="preserve" version="1.1" style="shape-rendering:geometricPrecision;text-rendering:geometricPrecision;image-rendering:optimizeQuality;" viewBox="0 0 3.015 3.2383733520504276" x="0" y="0" fill-rule="evenodd" clip-rule="evenodd" id="dxe-0" width="98.14819023189142" height="105.41972928654502" class="icon-dxe-0" data-fill-palette-color="quaternary"><g fill="#ffffff" data-fill-palette-color="quaternary"><path class="" d="M2.61 0.597C2.694 0.435 2.85 0.176 2.838 0 2.68 0.042 2.537 0.261 2.479 0.416 2.441 0.563 2.478 0.646 2.61 0.597" fill="#ffffff" data-fill-palette-color="quaternary"></path><path class="" d="M2.458 3.161C2.29 2.981 2.292 2.802 2.18 2.943 2.05 3.164 2.308 3.262 2.458 3.161" fill="#ffffff" data-fill-palette-color="quaternary"></path><path class="" d="M0 3.161C0.023 3.339 0.308 3.184 0.245 2.958 0.165 2.746 0.007 2.937 0 3.161" fill="#ffffff" data-fill-palette-color="quaternary"></path><path class="" d="M2.851 2.196C2.7 2.119 2.432 2.208 2.352 2.352A0.9 0.9 0 0 0 2.851 2.196" fill="#ffffff" data-fill-palette-color="quaternary"></path><path class="" d="M0.16 2.785C0.212 2.777 0.697 2.485 0.826 2.424 1.362 2.168 2.807 2.167 3.015 1.882L1.445 1.949C1.157 1.97 0.956 2.008 0.733 2.207 0.591 2.333 0.152 2.637 0.161 2.786z" fill="#ffffff" data-fill-palette-color="quaternary"></path><path class="" d="M1.836 1.582C1.457 1.646 1.38 1.568 1.255 1.792 1.339 1.842 2.372 1.909 2.542 1.614 2.336 1.528 2.001 1.569 1.836 1.583zM2.138 1.514C2.322 1.484 2.528 1.449 2.547 1.406 2.435 1.206 2.269 1.273 2.073 1.319 1.932 1.353 1.714 1.335 1.636 1.461 1.721 1.618 1.901 1.552 2.138 1.513z" fill="#ffffff" data-fill-palette-color="quaternary"></path><path class="" d="M2.105 2.32C2.029 2.297 1.478 2.438 1.328 2.462 1.208 2.481 0.543 2.529 0.601 2.748 0.673 3.018 1.192 2.686 1.351 2.629 1.498 2.577 2.046 2.419 2.105 2.319z" fill="#ffffff" data-fill-palette-color="quaternary"></path><path class="" d="M2.603 0.938C2.725 0.791 2.602 0.694 2.425 0.745 2.252 0.79 2.023 1.004 1.999 1.182 2.148 1.241 2.498 1.094 2.603 0.938" fill="#ffffff" data-fill-palette-color="quaternary"></path><path class="" d="M1.613 2.785C1.586 2.863 1.635 2.848 1.909 2.861 2.105 2.865 2.13 2.857 2.217 2.687 2.303 2.481 2.218 2.483 2.057 2.519 1.921 2.558 1.656 2.68 1.613 2.785" fill="#ffffff" data-fill-palette-color="quaternary"></path></g></svg></g></svg></g></svg></g></svg></g></svg></g><defs></defs></svg><rect width="395.52" height="115.5836381130884" fill="none" stroke="none" visibility="hidden"></rect></g></svg></g></svg>